<svg width="87" height="78" viewBox="0 0 87 78" fill="none" xmlns="http://www.w3.org/2000/svg">
<g clip-path="url(#clip0_110_3900)">
<path d="M72.1559 15.5123H14.8672V76.9989H72.1559V15.5123Z" fill="#6FCF97"/>
<path d="M14.6306 15.5123C14.6997 15.5123 14.7689 15.5419 14.8676 15.5715C14.8676 36.0276 14.8676 56.4836 14.8676 76.9693C10.4327 77.315 6.68918 76.1988 3.71609 73.3344C1.61221 71.2997 0.594838 68.9094 0.594838 66.2029C0.594838 56.6219 0.594838 47.0507 0.594838 37.4697C0.594838 33.8151 0.584961 30.1604 0.584961 26.5058C0.584961 22.0906 2.96541 18.8805 7.34108 16.7074C9.59312 15.6012 12.0921 15.4333 14.6306 15.5123Z" fill="url(#paint0_linear_110_3900)"/>
<path d="M62.1504 15.5024C64.7086 15.5024 64.9654 15.5024 67.5138 15.5024C67.5138 36.0276 67.5138 56.4836 67.5138 76.9791C50.1197 76.9791 36.9631 76.9791 19.5098 76.9791C19.5098 56.4935 19.5098 36.0374 19.5098 15.5222C22.0581 15.5222 22.6113 15.5222 25.209 15.5222C25.209 15.2653 25.209 15.0678 25.209 14.8801C25.209 12.6775 25.2189 10.4649 25.1991 8.26229C25.1794 6.72142 25.5942 5.37809 26.7993 4.33109C27.6487 3.60017 28.6266 3.22483 29.7328 3.22483C33.1603 3.21495 36.5779 3.21495 40.0053 3.21495C45.7638 3.21495 51.5322 3.22483 57.2907 3.21495C58.802 3.21495 60.0564 3.70882 61.0441 4.85459C61.8343 5.77319 62.1306 6.84982 62.1306 8.05486C62.1207 10.376 62.1306 12.6972 62.1306 15.0184C62.1207 15.1468 62.1306 15.295 62.1504 15.5024ZM31.3922 15.5024C31.6293 15.5024 31.8071 15.5024 31.9849 15.5024C34.711 15.5024 37.4471 15.5024 40.1732 15.5024C45.27 15.5024 50.3766 15.5024 55.4733 15.5123C55.8782 15.5123 55.9671 15.3839 55.9671 14.9987C55.9474 13.2701 55.9671 11.5416 55.9671 9.81303C55.9671 9.67475 55.9474 9.53647 55.9276 9.38831C47.7294 9.38831 39.5806 9.38831 31.3922 9.38831C31.3922 11.423 31.3922 13.4183 31.3922 15.5024Z" fill="white"/>
<mask id="mask0_110_3900" style="mask-type:alpha" maskUnits="userSpaceOnUse" x="19" y="3" width="49" height="74">
<path d="M62.1504 15.5024C64.7086 15.5024 64.9654 15.5024 67.5138 15.5024C67.5138 36.0276 67.5138 56.4836 67.5138 76.9792C50.1197 76.9792 36.9631 76.9792 19.5098 76.9792C19.5098 56.4935 19.5098 36.0375 19.5098 15.5222C22.0581 15.5222 22.6113 15.5222 25.209 15.5222C25.209 15.2654 25.209 15.0678 25.209 14.8801C25.209 12.6775 25.2189 10.465 25.1991 8.2623C25.1794 6.72143 25.5942 5.37811 26.7993 4.33111C27.6487 3.60018 28.6266 3.22484 29.7328 3.22484C33.1603 3.21497 36.5779 3.21497 40.0053 3.21497C45.7638 3.21497 51.5322 3.22484 57.2907 3.21497C58.802 3.21497 60.0564 3.70883 61.0441 4.85461C61.8343 5.7732 62.1306 6.84984 62.1306 8.05488C62.1207 10.3761 62.1306 12.6972 62.1306 15.0184C62.1207 15.1468 62.1306 15.295 62.1504 15.5024ZM31.3922 15.5024C31.6293 15.5024 31.8071 15.5024 31.9849 15.5024C34.711 15.5024 37.4471 15.5024 40.1732 15.5024C45.27 15.5024 50.3765 15.5024 55.4733 15.5123C55.8782 15.5123 55.9671 15.3839 55.9671 14.9987C55.9474 13.2701 55.9671 11.5416 55.9671 9.81305C55.9671 9.67477 55.9474 9.53648 55.9276 9.38832C47.7294 9.38832 39.5806 9.38832 31.3922 9.38832C31.3922 11.4231 31.3922 13.4183 31.3922 15.5024Z" fill="#F7F9FC"/>
</mask>
<g mask="url(#mask0_110_3900)">
<path d="M63.1354 0.429535H23.2012V15.5222H63.1354V0.429535Z" fill="url(#paint1_linear_110_3900)"/>
</g>
<path d="M86.7156 26.3478C86.7156 22.2783 84.4932 19.2459 80.5423 17.0433C78.1124 15.6901 75.3566 15.4333 72.5317 15.4925C72.0971 15.5024 72.1564 15.7296 72.1564 15.9666C72.1564 23.0783 72.1564 30.1802 72.1564 37.2919C72.1564 49.7868 72.1564 62.2718 72.1465 74.7666C72.1465 75.4877 72.1465 76.2087 72.1465 76.9891C73.9244 77.0483 75.6134 77.0582 77.2728 76.6631C82.8832 75.3395 86.7057 71.1614 86.7057 66.2326C86.7255 52.9475 86.7156 39.6427 86.7156 26.3478Z" fill="url(#paint2_linear_110_3900)"/>
<path d="M48.1936 50.7942C48.1936 52.0684 48.1936 53.2735 48.1936 54.4884C48.1936 55.8613 48.1936 57.2343 48.1936 58.5974C48.1936 59.4172 47.7787 59.8518 46.9688 59.8518C44.7365 59.8617 42.5042 59.8617 40.2719 59.8518C39.5311 59.8518 39.1163 59.3876 39.1163 58.6072C39.1163 56.1577 39.1163 53.7081 39.1163 51.2585C39.1163 51.1202 39.1163 50.972 39.1163 50.7942C38.9286 50.7942 38.7903 50.7942 38.6421 50.7942C36.2321 50.7942 33.8121 50.7942 31.402 50.7942C30.4439 50.7942 30.0488 50.409 30.0488 49.4509C30.0488 47.3273 30.0488 45.2037 30.0488 43.08C30.0488 42.112 30.434 41.7268 31.3921 41.7268C33.7923 41.7268 36.1926 41.7268 38.5928 41.7268C38.7508 41.7268 38.899 41.7268 39.1064 41.7268C39.1064 41.5688 39.1064 41.4404 39.1064 41.312C39.1064 38.8624 39.1064 36.4128 39.1064 33.9632C39.1064 33.0545 39.5114 32.6594 40.4201 32.6594C42.5437 32.6594 44.6673 32.6594 46.791 32.6594C47.7886 32.6594 48.1738 33.0347 48.1738 34.0521C48.1837 36.4819 48.1738 38.9019 48.1738 41.3317C48.1738 41.4503 48.1738 41.5688 48.1738 41.7367C48.3318 41.7367 48.4701 41.7367 48.5985 41.7367C51.0481 41.7367 53.4977 41.7367 55.9473 41.7466C56.8461 41.7466 57.2314 42.1417 57.2314 43.0405C57.2314 45.174 57.2314 47.3075 57.2314 49.441C57.2314 50.4189 56.856 50.7942 55.8979 50.7942C53.4582 50.7942 51.0185 50.7942 48.5887 50.8041C48.4899 50.7942 48.3714 50.7942 48.1936 50.7942Z" fill="url(#paint3_linear_110_3900)"/>
</g>
<defs>
<linearGradient id="paint0_linear_110_3900" x1="0.594838" y1="46.2616" x2="14.8691" y2="46.2616" gradientUnits="userSpaceOnUse">
<stop stop-color="#6CBCFC"/>
<stop offset="1" stop-color="#458DFC"/>
</linearGradient>
<linearGradient id="paint1_linear_110_3900" x1="23.197" y1="7.97425" x2="63.1336" y2="7.97425" gradientUnits="userSpaceOnUse">
<stop stop-color="#6CBCFC"/>
<stop offset="1" stop-color="#458DFC"/>
</linearGradient>
<linearGradient id="paint2_linear_110_3900" x1="72.1489" y1="46.2555" x2="86.7164" y2="46.2555" gradientUnits="userSpaceOnUse">
<stop stop-color="#6CBCFC"/>
<stop offset="1" stop-color="#458DFC"/>
</linearGradient>
<linearGradient id="paint3_linear_110_3900" x1="30.0549" y1="46.2655" x2="57.2511" y2="46.2655" gradientUnits="userSpaceOnUse">
<stop stop-color="#6CBCFC"/>
<stop offset="1" stop-color="#458DFC"/>
</linearGradient>
<clipPath id="clip0_110_3900">
<rect width="86.1208" height="76.599" fill="white" transform="translate(0.594727 0.429535)"/>
</clipPath>
</defs>
</svg>
