<svg width="52" height="56" viewBox="0 0 52 56" fill="none" xmlns="http://www.w3.org/2000/svg">
<rect x="3.71875" y="20.2778" width="48.2812" height="14.9069" rx="7.45346" fill="#1DA0FF"/>
<path d="M5.65845 22.4791C8.50765 19.5684 13.1271 19.5684 15.9763 22.4791L33.3115 40.1888C36.1607 43.0996 36.1607 47.8189 33.3115 50.7296C30.4623 53.6404 25.8428 53.6404 22.9936 50.7296L5.65845 33.0199C2.80925 30.1092 2.80925 25.3899 5.65845 22.4791Z" fill="#74DB6B"/>
<path d="M35.5846 8.05631C35.5846 12.5057 32.102 16.1126 27.806 16.1126C23.51 16.1126 20.0273 12.5057 20.0273 8.05631C20.0273 3.60693 23.51 0 27.806 0C32.102 0 35.5846 3.60693 35.5846 8.05631Z" fill="#74DB6B"/>
</svg>
