<svg width="76" height="104" viewBox="0 0 76 104" fill="none" xmlns="http://www.w3.org/2000/svg">
<g clip-path="url(#clip0_110_3876)">
<path d="M75.0914 5.53402V98.5393C75.0914 101.106 73.0178 103.179 70.4513 103.179H4.99749C2.43101 103.162 0.357422 101.089 0.357422 98.5393V5.53402C0.357422 2.96753 2.43101 0.893951 4.99749 0.893951H70.4683C73.0178 0.893951 75.0914 2.96753 75.0914 5.53402Z" fill="url(#paint0_linear_110_3876)"/>
<path d="M70.3302 9.44862V94.6077C70.3302 96.9577 68.5082 98.8564 66.2531 98.8564H8.74021C6.4851 98.8408 4.66309 96.9422 4.66309 94.6077V9.44862C4.66309 7.09865 6.4851 5.2 8.74021 5.2H66.268C68.5082 5.2 70.3302 7.09865 70.3302 9.44862Z" fill="url(#paint1_linear_110_3876)"/>
<path d="M29.2859 20.542V24.7742C29.2859 25.0801 29.0479 25.3181 28.742 25.3181H23.558C23.2521 25.3181 23.0141 25.556 23.0141 25.8619V31.0459C23.0141 31.3518 22.7762 31.5898 22.4702 31.5898H18.2381C17.9321 31.5898 17.6942 31.3518 17.6942 31.0459V25.8619C17.6942 25.556 17.4562 25.3181 17.1503 25.3181H11.9833C11.6774 25.3181 11.4395 25.0801 11.4395 24.7742V20.542C11.4395 20.2361 11.6774 19.9981 11.9833 19.9981H17.1673C17.4732 19.9981 17.7112 19.7602 17.7112 19.4542V14.2703C17.7112 13.9643 17.9491 13.7264 18.2551 13.7264H22.4872C22.7932 13.7264 23.0311 13.9643 23.0311 14.2703V19.4542C23.0311 19.7602 23.2691 19.9981 23.575 19.9981H28.742C29.0479 19.9981 29.2859 20.2361 29.2859 20.542Z" fill="#6FCF97"/>
<path opacity="0.5" d="M63.4144 43.6064H12.0338C11.6938 43.6064 11.4219 43.3344 11.4219 42.9945V41.0399C11.4219 40.7 11.6938 40.428 12.0338 40.428H63.4144C63.7544 40.428 64.0263 40.7 64.0263 41.0399V42.9945C64.0093 43.3344 63.7544 43.6064 63.4144 43.6064Z" fill="url(#paint2_linear_110_3876)"/>
<path d="M63.4144 19.2503H37.9195C37.5796 19.2503 37.3076 18.9783 37.3076 18.6384V16.7008C37.3076 16.3609 37.5796 16.0889 37.9195 16.0889H63.4144C63.7543 16.0889 64.0263 16.3609 64.0263 16.7008V18.6554C64.0093 18.9783 63.7543 19.2503 63.4144 19.2503Z" fill="url(#paint3_linear_110_3876)"/>
<path opacity="0.5" d="M55.8679 27.5106H37.9195C37.5796 27.5106 37.3076 27.2386 37.3076 26.8987V24.9441C37.3076 24.6042 37.5796 24.3322 37.9195 24.3322H55.8679C56.2078 24.3322 56.4798 24.6042 56.4798 24.9441V26.8987C56.4628 27.2386 56.2078 27.5106 55.8679 27.5106Z" fill="url(#paint4_linear_110_3876)"/>
<path opacity="0.5" d="M63.4144 52.8865H12.0338C11.6938 52.8865 11.4219 52.6146 11.4219 52.2746V50.32C11.4219 49.9801 11.6938 49.7082 12.0338 49.7082H63.4144C63.7544 49.7082 64.0263 49.9801 64.0263 50.32V52.2746C64.0093 52.6146 63.7544 52.8865 63.4144 52.8865Z" fill="url(#paint5_linear_110_3876)"/>
<path opacity="0.5" d="M63.4144 62.1666H12.0338C11.6938 62.1666 11.4219 61.8947 11.4219 61.5548V59.6002C11.4219 59.2602 11.6938 58.9883 12.0338 58.9883H63.4144C63.7544 58.9883 64.0263 59.2602 64.0263 59.6002V61.5718C64.0093 61.8947 63.7544 62.1666 63.4144 62.1666Z" fill="url(#paint6_linear_110_3876)"/>
<path opacity="0.5" d="M63.4144 71.4638H12.0338C11.6938 71.4638 11.4219 71.1918 11.4219 70.8519V68.8973C11.4219 68.5574 11.6938 68.2854 12.0338 68.2854H63.4144C63.7544 68.2854 64.0263 68.5574 64.0263 68.8973V70.8519C64.0093 71.1918 63.7544 71.4638 63.4144 71.4638Z" fill="url(#paint7_linear_110_3876)"/>
<path opacity="0.5" d="M63.4144 80.7439H12.0338C11.6938 80.7439 11.4219 80.472 11.4219 80.1321V78.1774C11.4219 77.8375 11.6938 77.5656 12.0338 77.5656H63.4144C63.7544 77.5656 64.0263 77.8375 64.0263 78.1774V80.1321C64.0093 80.472 63.7544 80.7439 63.4144 80.7439Z" fill="url(#paint8_linear_110_3876)"/>
<path opacity="0.5" d="M63.4144 90.0241H12.0338C11.6938 90.0241 11.4219 89.7521 11.4219 89.4122V87.4576C11.4219 87.1176 11.6938 86.8457 12.0338 86.8457H63.4144C63.7544 86.8457 64.0263 87.1176 64.0263 87.4576V89.4122C64.0093 89.7521 63.7544 90.0241 63.4144 90.0241Z" fill="url(#paint9_linear_110_3876)"/>
<path opacity="0.1" d="M75.0914 5.53402V98.5393C75.0914 101.106 73.0178 103.179 70.4513 103.179H4.99749C2.43101 103.162 0.357422 101.089 0.357422 98.5393V96.9247C40.2824 80.438 58.8767 17.2107 63.0748 0.893951H70.4513C73.0178 0.893951 75.0914 2.96753 75.0914 5.53402Z" fill="#1A6FB5" fill-opacity="0.4"/>
</g>
<defs>
<linearGradient id="paint0_linear_110_3876" x1="102.626" y1="136.534" x2="-6.10164" y2="-5.02685" gradientUnits="userSpaceOnUse">
<stop offset="0.3061" stop-color="#5BA7FC"/>
<stop offset="1" stop-color="#69B8FC"/>
</linearGradient>
<linearGradient id="paint1_linear_110_3876" x1="9.64097" y1="8.47865" x2="62.7284" y2="84.8954" gradientUnits="userSpaceOnUse">
<stop offset="0.3061" stop-color="white"/>
<stop offset="1" stop-color="white"/>
</linearGradient>
<linearGradient id="paint2_linear_110_3876" x1="11.435" y1="42.0244" x2="64.0171" y2="42.0244" gradientUnits="userSpaceOnUse">
<stop stop-color="#6CBCFC"/>
<stop offset="1" stop-color="#458DFC"/>
</linearGradient>
<linearGradient id="paint3_linear_110_3876" x1="37.3081" y1="17.6708" x2="64.017" y2="17.6708" gradientUnits="userSpaceOnUse">
<stop stop-color="#6CBCFC"/>
<stop offset="1" stop-color="#458DFC"/>
</linearGradient>
<linearGradient id="paint4_linear_110_3876" x1="37.3081" y1="25.9353" x2="56.4708" y2="25.9353" gradientUnits="userSpaceOnUse">
<stop stop-color="#6CBCFC"/>
<stop offset="1" stop-color="#458DFC"/>
</linearGradient>
<linearGradient id="paint5_linear_110_3876" x1="11.435" y1="51.3088" x2="64.0171" y2="51.3088" gradientUnits="userSpaceOnUse">
<stop stop-color="#6CBCFC"/>
<stop offset="1" stop-color="#458DFC"/>
</linearGradient>
<linearGradient id="paint6_linear_110_3876" x1="11.435" y1="60.5931" x2="64.0171" y2="60.5931" gradientUnits="userSpaceOnUse">
<stop stop-color="#6CBCFC"/>
<stop offset="1" stop-color="#458DFC"/>
</linearGradient>
<linearGradient id="paint7_linear_110_3876" x1="11.435" y1="69.8774" x2="64.0171" y2="69.8774" gradientUnits="userSpaceOnUse">
<stop stop-color="#6CBCFC"/>
<stop offset="1" stop-color="#458DFC"/>
</linearGradient>
<linearGradient id="paint8_linear_110_3876" x1="11.435" y1="79.1618" x2="64.0171" y2="79.1618" gradientUnits="userSpaceOnUse">
<stop stop-color="#6CBCFC"/>
<stop offset="1" stop-color="#458DFC"/>
</linearGradient>
<linearGradient id="paint9_linear_110_3876" x1="11.435" y1="88.4461" x2="64.0171" y2="88.4461" gradientUnits="userSpaceOnUse">
<stop stop-color="#6CBCFC"/>
<stop offset="1" stop-color="#458DFC"/>
</linearGradient>
<clipPath id="clip0_110_3876">
<rect width="74.734" height="102.268" fill="white" transform="translate(0.357422 0.893951)"/>
</clipPath>
</defs>
</svg>
