<svg width="73" height="103" viewBox="0 0 73 103" fill="none" xmlns="http://www.w3.org/2000/svg">
<g clip-path="url(#clip0_110_3821)">
<path d="M70.3751 0.595947H2.94253C1.55568 0.595947 0.43457 1.70284 0.43457 3.0721V100.396C0.43457 101.766 1.55568 102.873 2.94253 102.873H70.3751C71.7619 102.873 72.883 101.766 72.883 100.396V3.0721C72.8747 1.70284 71.7536 0.595947 70.3751 0.595947Z" fill="url(#paint0_linear_110_3821)"/>
<path d="M65.9487 5.00714H7.36047C6.01514 5.00714 4.91895 6.08943 4.91895 7.4259V87.8927C4.91895 89.2291 6.01514 90.3032 7.36047 90.3032H65.9487C67.3024 90.3032 68.3903 89.221 68.3903 87.8927V7.4259C68.3903 6.08943 67.3024 5.00714 65.9487 5.00714Z" fill="white"/>
<path d="M48.6342 43.2645H24.684C23.5878 43.2645 22.6992 42.3872 22.6992 41.3049V17.6503C22.6992 16.568 23.5878 15.6907 24.684 15.6907H48.6342C49.7304 15.6907 50.6189 16.568 50.6189 17.6503V41.2967C50.6189 42.379 49.7304 43.2645 48.6342 43.2645Z" fill="#6FCF97"/>
<path d="M36.6589 100.224C38.6953 100.224 40.3461 98.5944 40.3461 96.5838C40.3461 94.5733 38.6953 92.9434 36.6589 92.9434C34.6225 92.9434 32.9717 94.5733 32.9717 96.5838C32.9717 98.5944 34.6225 100.224 36.6589 100.224Z" fill="white"/>
<path d="M57.5283 55.5141H15.7816C14.7269 55.5141 13.8633 54.6614 13.8633 53.6201C13.8633 52.5788 14.7269 51.7261 15.7816 51.7261H57.52C58.5747 51.7261 59.4384 52.5788 59.4384 53.6201C59.4384 54.6614 58.583 55.5141 57.5283 55.5141Z" fill="url(#paint1_linear_110_3821)"/>
<path opacity="0.6" d="M50.4607 66.0091H15.0836C14.4109 66.0091 13.8711 65.4679 13.8711 64.812V64.6808C13.8711 64.0167 14.4192 63.4837 15.0836 63.4837H50.4607C51.1334 63.4837 51.6732 64.0249 51.6732 64.6808V64.812C51.6815 65.4679 51.1334 66.0091 50.4607 66.0091Z" fill="url(#paint2_linear_110_3821)"/>
<path opacity="0.3" d="M43.7263 72.675H14.9678C14.3616 72.675 13.8633 72.183 13.8633 71.5845V71.2237C13.8633 70.6252 14.3616 70.1332 14.9678 70.1332H43.718C44.3242 70.1332 44.8225 70.6252 44.8225 71.2237V71.5845C44.8225 72.183 44.3242 72.675 43.7263 72.675Z" fill="url(#paint3_linear_110_3821)"/>
<path opacity="0.6" d="M47.3465 78.8489H15.0337C14.3943 78.8489 13.8711 78.3324 13.8711 77.7011V77.4715C13.8711 76.8402 14.3943 76.3236 15.0337 76.3236H47.3465C47.986 76.3236 48.5092 76.8402 48.5092 77.4715V77.7011C48.5092 78.3242 47.986 78.8489 47.3465 78.8489Z" fill="url(#paint4_linear_110_3821)"/>
<path d="M36.7306 28.7153C39.1286 28.7153 41.0725 26.7704 41.0725 24.3711C41.0725 21.9718 39.1286 20.027 36.7306 20.027C34.3326 20.027 32.3887 21.9718 32.3887 24.3711C32.3887 26.7704 34.3235 28.7153 36.7306 28.7153ZM36.7306 30.8873C33.833 30.8873 28.0469 32.3414 28.0469 35.2315V36.322C28.0469 36.9219 28.5374 37.4126 29.1369 37.4126H44.3425C44.942 37.4126 45.4325 36.9219 45.4325 36.322V35.2315C45.4143 32.3505 39.6282 30.8873 36.7306 30.8873Z" fill="white"/>
</g>
<defs>
<linearGradient id="paint0_linear_110_3821" x1="4.82348" y1="49.0713" x2="72.9316" y2="54.91" gradientUnits="userSpaceOnUse">
<stop stop-color="#6CBCFC"/>
<stop offset="1" stop-color="#458DFC"/>
</linearGradient>
<linearGradient id="paint1_linear_110_3821" x1="59.4424" y1="53.6216" x2="13.8711" y2="53.6216" gradientUnits="userSpaceOnUse">
<stop stop-color="#6CBCFC"/>
<stop offset="1" stop-color="#458DFC"/>
</linearGradient>
<linearGradient id="paint2_linear_110_3821" x1="51.6791" y1="64.7427" x2="13.8706" y2="64.7427" gradientUnits="userSpaceOnUse">
<stop stop-color="#6CBCFC"/>
<stop offset="1" stop-color="#458DFC"/>
</linearGradient>
<linearGradient id="paint3_linear_110_3821" x1="44.8233" y1="71.4087" x2="13.8711" y2="71.4087" gradientUnits="userSpaceOnUse">
<stop stop-color="#6CBCFC"/>
<stop offset="1" stop-color="#458DFC"/>
</linearGradient>
<linearGradient id="paint4_linear_110_3821" x1="48.5085" y1="77.5797" x2="13.8706" y2="77.5797" gradientUnits="userSpaceOnUse">
<stop stop-color="#6CBCFC"/>
<stop offset="1" stop-color="#458DFC"/>
</linearGradient>
<clipPath id="clip0_110_3821">
<rect width="72.4402" height="102.268" fill="white" transform="translate(0.43457 0.595947)"/>
</clipPath>
</defs>
</svg>
