<svg width="68" height="93" viewBox="0 0 68 93" fill="none" xmlns="http://www.w3.org/2000/svg">
<g clip-path="url(#clip0_110_3842)">
<path d="M67.5677 29.2503L67.3614 72.0963L67.327 80.3835C67.2927 86.9686 61.0343 92.2814 53.3316 92.247L14.8528 92.075C7.16731 92.0235 0.943294 86.6591 0.977681 80.0568L1.21839 28.9236C1.23558 23.5937 5.362 19.089 11.0014 17.5932L11.0186 14.8422V13.4324L57.9051 13.6559L57.8879 17.8167C63.5101 19.3813 67.5849 23.9032 67.5677 29.2503Z" fill="url(#paint0_linear_110_3842)"/>
<path d="M61.3955 2.65212V3.03038L61.3611 7.50066L61.3267 11.885V12.418C61.3267 13.2433 60.639 13.9138 59.8137 13.9138H59.4526L57.1831 13.8966L54.69 13.8794L52.4205 13.8622L49.9275 13.845L47.6235 13.8106L45.1305 13.7935L42.861 13.7763L40.3507 13.7591L38.064 13.7419L35.571 13.7247L33.3014 13.6903L30.8084 13.6731L28.5389 13.6559L26.0286 13.6387L23.7419 13.6215L21.266 13.6043L18.9965 13.5871L16.5035 13.5699L14.2167 13.5527L11.7237 13.5356L9.43697 13.5184H9.0759C8.25062 13.5184 7.58008 12.8306 7.58008 12.0053V11.9881V11.6099L7.64885 2.77248V2.23948C7.64885 1.4142 8.33659 0.743652 9.17907 0.743652H9.54013L14.3199 0.778039L19.0997 0.812426L21.3864 0.829619L23.8794 0.846813L26.149 0.864006L30.9115 0.915586L33.4046 0.93278L35.6741 0.949973L38.1672 0.967167L40.4367 0.98436L42.9297 1.00155L45.1993 1.01875L47.6923 1.03594L49.9618 1.05313L52.4893 1.08752L54.7588 1.10471L57.2519 1.12191L59.5386 1.1391H59.8996C60.7421 1.15629 61.3955 1.82684 61.3955 2.65212Z" fill="url(#paint1_linear_110_3842)"/>
<path d="M61.3955 3.04756L61.3611 7.50065L61.3267 11.885L59.2807 11.8678L56.5641 11.8506L54.0711 11.8334H51.3373L48.8443 11.8162L46.1277 11.799L43.6347 11.7818H40.9009L38.4079 11.7646L35.6741 11.7474L33.1983 11.7302H30.4645L27.9715 11.713L25.2377 11.6958L22.7447 11.6787H20.0281L17.5351 11.6615L14.8013 11.6443L12.3083 11.6271H9.59171L7.58008 11.6099L7.64885 2.77246L12.4286 2.78965L17.6382 2.82404L20.1313 2.84123L22.865 2.85843H25.3581L30.5677 2.89281L33.3014 2.91001H35.7945L38.5282 2.9272L41.0041 2.9444L43.7378 2.96159H46.2309L48.9646 2.97878L51.4405 2.99598L54.1742 3.01317H56.6673L59.401 3.03036L61.3955 3.04756Z" fill="url(#paint2_linear_110_3842)"/>
<path d="M67.5174 38.2967L1.16797 37.983L1.02885 67.4009L67.3782 67.7147L67.5174 38.2967Z" fill="#F7F9FC"/>
<path d="M67.5291 38.2966L1.17969 37.983L1.15465 43.2785L67.5041 43.5922L67.5291 38.2966Z" fill="#FBFCF7"/>
<path d="M27.0429 49.8114L22.7617 49.7942L22.7789 45.4958L16.8816 45.4786L16.8644 49.7598L12.5832 49.7426L12.5488 55.6228L16.83 55.6399L16.8128 59.9383L22.7101 59.9555L22.7273 55.6743L27.0085 55.6915L27.0429 49.8114Z" fill="#6FCF97"/>
<path d="M56.134 51.2384L34.9173 51.1353C34.35 51.1353 33.8857 50.671 33.8857 50.1037V49.6222C33.8857 49.0549 34.35 48.5906 34.9173 48.5906L56.134 48.6938C56.7014 48.6938 57.1656 49.158 57.1656 49.7254V50.2068C57.1656 50.7742 56.7014 51.2384 56.134 51.2384Z" fill="#6FCF97"/>
<path opacity="0.5" d="M56.1174 57.5484L34.9007 57.4453C34.3334 57.4453 33.8691 56.981 33.8691 56.4137V55.9322C33.8691 55.3649 34.3334 54.9006 34.9007 54.9006L56.1174 55.0038C56.6848 55.0038 57.149 55.468 57.149 56.0354V56.5168C57.149 57.0842 56.6848 57.5484 56.1174 57.5484Z" fill="#6FCF97"/>
<path opacity="0.08" d="M7.58008 2.65212V3.03037L7.61446 7.50066L7.64885 11.8678V12.4008C7.64885 13.2261 8.33659 13.8966 9.16187 13.8966H9.52293L11.8097 13.8794L14.3027 13.8622L16.5722 13.845L19.0653 13.8278L21.3348 13.8106L23.8279 13.7935L26.0974 13.7763L28.5904 13.7591L30.8772 13.7419L33.3702 13.7247L35.6397 13.7075L38.1328 13.6903L40.4023 13.6731L42.8954 13.6559L45.1821 13.6387L47.6751 13.6215L49.9447 13.6043L52.4377 13.5871L54.7072 13.5699L57.2003 13.5527L59.487 13.5356H59.8481C60.6733 13.5356 61.3439 12.8478 61.3439 12.0225V12.0053V11.6271C34.7457 12.779 9.0759 1.1391 9.0759 1.1391C8.25062 1.15629 7.58008 1.82684 7.58008 2.65212Z" fill="#1A6FB5"/>
</g>
<defs>
<linearGradient id="paint0_linear_110_3842" x1="0.977681" y1="12.9441" x2="62.4883" y2="97.8389" gradientUnits="userSpaceOnUse">
<stop stop-color="#6CBCFC"/>
<stop offset="1" stop-color="#458DFC"/>
</linearGradient>
<linearGradient id="paint1_linear_110_3842" x1="-677.148" y1="-42.2425" x2="-28.7383" y2="2.92043" gradientUnits="userSpaceOnUse">
<stop stop-color="#B0F4FF"/>
<stop offset="0.0525488" stop-color="#A9F2FF"/>
<stop offset="0.2879" stop-color="#8DE8FE"/>
<stop offset="0.5247" stop-color="#79E1FD"/>
<stop offset="0.7618" stop-color="#6DDDFC"/>
<stop offset="1" stop-color="#69DCFC"/>
</linearGradient>
<linearGradient id="paint2_linear_110_3842" x1="7.58751" y1="7.32447" x2="61.3977" y2="7.32447" gradientUnits="userSpaceOnUse">
<stop stop-color="#B0F4FF"/>
<stop offset="0.0525488" stop-color="#A9F2FF"/>
<stop offset="0.2879" stop-color="#8DE8FE"/>
<stop offset="0.5247" stop-color="#79E1FD"/>
<stop offset="0.7618" stop-color="#6DDDFC"/>
<stop offset="1" stop-color="#69DCFC"/>
</linearGradient>
<clipPath id="clip0_110_3842">
<rect width="66.5901" height="91.5034" fill="white" transform="translate(0.977539 0.743652)"/>
</clipPath>
</defs>
</svg>
