<svg width="73" height="103" viewBox="0 0 73 103" fill="none" xmlns="http://www.w3.org/2000/svg">
<g clip-path="url(#clip0_110_3857)">
<path d="M72.7288 97.8033C72.7288 100.472 70.5689 102.641 67.9001 102.641L5.45729 102.712C3.33302 102.712 1.53007 101.347 0.878505 99.4456C0.70892 98.9547 0.619665 98.437 0.619665 97.8925L0.521484 7.84308C0.521484 5.17435 2.68146 3.00546 5.35018 3.00546L62.6876 2.94298L67.793 2.93405C70.4618 2.93405 72.6307 5.09402 72.6307 7.76275L72.7288 97.8033Z" fill="url(#paint0_linear_110_3857)"/>
<path d="M66.2581 97.2856L7.09087 97.3481C5.65387 97.3481 4.49355 96.1877 4.49355 94.7507L4.4043 10.9492C4.4043 9.51215 5.56461 8.35183 7.00162 8.35183L66.1599 8.28935C67.5969 8.28935 68.7572 9.44967 68.7572 10.8867L68.8465 94.6882C68.8554 96.1163 67.6951 97.2856 66.2581 97.2856Z" fill="white"/>
<path d="M57.9486 15.1977L14.7937 15.2512C13.3657 15.2512 12.1964 14.0909 12.1964 12.6628L12.1875 5.46888C12.1875 4.0408 13.3478 2.87156 14.7759 2.87156L57.9396 2.82693C59.3677 2.82693 60.537 3.98725 60.537 5.41533L60.5459 12.6093C60.537 14.0374 59.3767 15.1977 57.9486 15.1977ZM14.7759 4.19254C14.0797 4.19254 13.5085 4.76377 13.5085 5.45996L13.5174 12.6539C13.5174 13.3501 14.0886 13.9213 14.7848 13.9213L57.9486 13.8767C58.6448 13.8767 59.216 13.3055 59.216 12.6093L59.2071 5.41533C59.2071 4.71914 58.6358 4.14791 57.9396 4.14791L14.7759 4.19254Z" fill="url(#paint1_linear_110_3857)"/>
<path d="M56.725 5.94194L16.4263 5.98657C15.9801 5.98657 15.623 5.62955 15.623 5.18328V1.28283C15.623 0.836554 15.9801 0.479534 16.4263 0.479534L56.7161 0.434906C57.1624 0.434906 57.5194 0.791926 57.5194 1.2382V5.13865C57.5283 5.58492 57.1713 5.94194 56.725 5.94194Z" fill="#6FCF97"/>
<path d="M30.6004 87.8602L27.1194 66.7961L24.299 75.9625L16.2303 75.9715C15.7394 75.9715 15.3467 75.5788 15.3467 75.0878C15.3467 74.5969 15.7394 74.2042 16.2303 74.2042L23.0048 74.1953L27.655 59.1023L31.1359 80.22L35.6522 65.7161L38.0532 72.5887L43.462 59.4771L48.7192 80.2736L50.7006 73.6598L56.5022 73.6508C56.9931 73.6508 57.3858 74.0436 57.3858 74.5345C57.3858 75.0254 56.9931 75.4181 56.5022 75.4181L52.0127 75.427L48.5763 86.8963L43.0604 65.0824L37.9104 77.5513L35.7415 71.3481L30.6004 87.8602Z" fill="#6FCF97"/>
<path d="M24.6201 47.2492L13.2758 47.2581C11.446 47.2581 9.94656 45.7676 9.94656 43.9378L9.92871 28.0772C9.92871 26.2475 11.4193 24.748 13.249 24.748L24.5933 24.7391C26.4231 24.7391 27.9225 26.2296 27.9225 28.0593L27.9404 43.92C27.9404 45.7497 26.4498 47.2403 24.6201 47.2492ZM13.2401 25.7119C11.937 25.7119 10.8837 26.7741 10.8837 28.0772L10.9016 43.9378C10.9016 45.2409 11.9637 46.2942 13.2669 46.2942L24.6112 46.2852C25.9143 46.2852 26.9675 45.2231 26.9675 43.92L26.9497 28.0593C26.9497 26.7562 25.8875 25.703 24.5844 25.703L13.2401 25.7119Z" fill="url(#paint2_linear_110_3857)"/>
<path d="M18.9346 44.2056C24.2988 44.1967 25.9679 41.0995 25.9679 41.0995C25.7269 40.796 25.4234 40.5283 25.0128 40.2605C23.6026 39.3412 22.4691 38.9485 21.996 38.5557C21.514 38.1719 21.2463 37.6096 21.2463 37.6096L20.9517 37.7881C20.9517 37.7881 20.7732 37.1723 20.8714 36.2351C20.8714 36.2351 21.2909 36.128 21.6033 34.7088C22.1031 34.807 22.6922 33.5396 22.4155 33.0755C22.237 32.772 22.0228 32.7988 21.8711 32.8702C22.0228 32.2365 22.7101 28.7288 18.9256 28.7288C15.1412 28.7288 15.8285 32.2365 15.9892 32.8702C15.8374 32.7988 15.6232 32.772 15.4447 33.0755C15.168 33.5396 15.766 34.807 16.2658 34.7088C16.5782 36.128 17.0067 36.2262 17.0067 36.2262C17.1138 37.1544 16.9263 37.7792 16.9263 37.7792L16.6318 37.6007C16.6318 37.6007 16.364 38.1541 15.882 38.5468C15.4001 38.9395 14.2755 39.3412 12.8652 40.2605C12.4546 40.5283 12.1423 40.796 11.9102 41.0995C11.9013 41.1174 13.5793 44.2145 18.9346 44.2056Z" fill="#6FCF97"/>
<path d="M54.2622 29.7999L32.4215 29.8266C32.0109 29.8266 31.6807 29.4964 31.6807 29.0858V28.9609C31.6807 28.5503 32.0109 28.22 32.4215 28.22L54.2622 28.1933C54.6728 28.1933 55.003 28.5235 55.003 28.9341V29.059C55.003 29.4696 54.6638 29.7999 54.2622 29.7999Z" fill="url(#paint3_linear_110_3857)"/>
<path d="M46.2292 33.9591L32.4215 33.977C32.0109 33.977 31.6807 33.6467 31.6807 33.2361V33.1112C31.6807 32.7006 32.0109 32.3703 32.4215 32.3703L46.2292 32.3525C46.6398 32.3525 46.9701 32.6827 46.9701 33.0933V33.2183C46.9701 33.6289 46.6398 33.9591 46.2292 33.9591Z" fill="url(#paint4_linear_110_3857)"/>
<path opacity="0.6" d="M61.7952 38.9038L32.4303 38.9395C32.0197 38.9395 31.6895 38.6093 31.6895 38.1987V38.0738C31.6895 37.6632 32.0197 37.3329 32.4303 37.3329L61.7952 37.2972C62.2058 37.2972 62.536 37.6275 62.536 38.0381V38.163C62.5271 38.5736 62.1968 38.9038 61.7952 38.9038Z" fill="url(#paint5_linear_110_3857)"/>
<path opacity="0.6" d="M61.1609 52.8009L12.1778 52.8544C11.7583 52.8544 11.4102 52.5152 11.4102 52.0868V52.0154C11.4102 51.5959 11.7493 51.2478 12.1778 51.2478L61.1609 51.1943C61.5804 51.1943 61.9285 51.5334 61.9285 51.9619V52.0333C61.9285 52.4617 61.5804 52.8009 61.1609 52.8009Z" fill="url(#paint6_linear_110_3857)"/>
<path opacity="0.6" d="M61.7952 43.7593L32.4303 43.795C32.0197 43.795 31.6895 43.4648 31.6895 43.0542V42.9292C31.6895 42.5187 32.0197 42.1884 32.4303 42.1884L61.7952 42.1527C62.2058 42.1527 62.536 42.483 62.536 42.8935V43.0185C62.536 43.4291 62.2058 43.7593 61.7952 43.7593Z" fill="url(#paint7_linear_110_3857)"/>
</g>
<defs>
<linearGradient id="paint0_linear_110_3857" x1="-9.47788" y1="37.8414" x2="82.7282" y2="67.801" gradientUnits="userSpaceOnUse">
<stop stop-color="#6CBCFC"/>
<stop offset="0.1713" stop-color="#5EABFC"/>
<stop offset="0.4084" stop-color="#509AFC"/>
<stop offset="0.6698" stop-color="#4890FC"/>
<stop offset="1" stop-color="#458DFC"/>
</linearGradient>
<linearGradient id="paint1_linear_110_3857" x1="-5.10288" y1="-22.5755" x2="60.5388" y2="9.0359" gradientUnits="userSpaceOnUse">
<stop stop-color="#CFE9FF"/>
<stop offset="1" stop-color="#A1D6FB"/>
</linearGradient>
<linearGradient id="paint2_linear_110_3857" x1="15.7377" y1="31.8771" x2="26.2666" y2="45.469" gradientUnits="userSpaceOnUse">
<stop stop-color="#6CBCFC"/>
<stop offset="1" stop-color="#458DFC"/>
</linearGradient>
<linearGradient id="paint3_linear_110_3857" x1="31.6819" y1="29.0173" x2="54.9983" y2="29.0313" gradientUnits="userSpaceOnUse">
<stop stop-color="#6CBCFC"/>
<stop offset="1" stop-color="#458DFC"/>
</linearGradient>
<linearGradient id="paint4_linear_110_3857" x1="31.6862" y1="33.1647" x2="46.9691" y2="33.1647" gradientUnits="userSpaceOnUse">
<stop stop-color="#6CBCFC"/>
<stop offset="1" stop-color="#458DFC"/>
</linearGradient>
<linearGradient id="paint5_linear_110_3857" x1="31.6911" y1="38.1233" x2="62.531" y2="38.1233" gradientUnits="userSpaceOnUse">
<stop stop-color="#6CBCFC"/>
<stop offset="1" stop-color="#458DFC"/>
</linearGradient>
<linearGradient id="paint6_linear_110_3857" x1="11.4097" y1="52.029" x2="61.926" y2="52.029" gradientUnits="userSpaceOnUse">
<stop stop-color="#6CBCFC"/>
<stop offset="1" stop-color="#458DFC"/>
</linearGradient>
<linearGradient id="paint7_linear_110_3857" x1="31.6961" y1="42.9777" x2="62.536" y2="42.9777" gradientUnits="userSpaceOnUse">
<stop stop-color="#6CBCFC"/>
<stop offset="1" stop-color="#458DFC"/>
</linearGradient>
<clipPath id="clip0_110_3857">
<rect width="72.2074" height="102.268" fill="white" transform="translate(0.521484 0.434906)"/>
</clipPath>
</defs>
</svg>
