<svg width="100" height="98" viewBox="0 0 100 98" fill="none" xmlns="http://www.w3.org/2000/svg">
<g clip-path="url(#clip0_110_3809)">
<path d="M61.5017 46.7607L51.7293 56.0887L10.462 95.4738C9.37856 96.5103 7.98876 97.0285 6.59896 97.0285C5.07783 97.0285 3.55671 96.411 2.45143 95.1871C0.273711 92.7835 0.558238 89.0236 3.06426 86.9727L51.7293 47.312L57.0915 42.9457L61.5017 46.7607Z" fill="url(#paint0_linear_110_3809)"/>
<path d="M51.3025 56.5629L41.6833 65.7365L40.7969 56.3093L46.0606 52.0201L51.3025 56.5629Z" fill="#3A81D6" fill-opacity="0.8"/>
<path d="M99.9999 32.3276C99.9999 50.1126 85.686 64.5347 68.0454 64.5347C56.9269 64.5347 47.1326 58.8122 41.4093 50.1236C38.0497 45.0296 36.0908 38.9102 36.0908 32.3276C36.0908 14.5426 50.4047 0.131531 68.0454 0.131531C76.0121 0.131531 83.2894 3.06446 88.8815 7.91592C95.6882 13.8259 99.9999 22.5695 99.9999 32.3276Z" fill="url(#paint1_linear_110_3809)"/>
<path d="M68.0455 57.4119C81.7952 57.4119 92.9416 46.1813 92.9416 32.3276C92.9416 18.474 81.7952 7.24335 68.0455 7.24335C54.2958 7.24335 43.1494 18.474 43.1494 32.3276C43.1494 46.1813 54.2958 57.4119 68.0455 57.4119Z" fill="white"/>
<path opacity="0.06" d="M99.9998 32.3276C99.9998 50.1126 85.6859 64.5347 68.0452 64.5347C56.9268 64.5347 47.1325 58.8121 41.4092 50.1236C77.4456 47.1686 86.9444 16.406 88.8923 7.91589C95.6881 13.8259 99.9998 22.5695 99.9998 32.3276Z" fill="#1A6FB5" fill-opacity="0.5"/>
<path d="M68.0458 32.3827C70.9348 32.3827 73.2767 30.0231 73.2767 27.1123C73.2767 24.2014 70.9348 21.8418 68.0458 21.8418C65.1568 21.8418 62.8149 24.2014 62.8149 27.1123C62.8149 30.0231 65.1458 32.3827 68.0458 32.3827ZM68.0458 35.0179C64.5549 35.0179 57.584 36.7821 57.584 40.2884V41.6115C57.584 42.3392 58.1749 42.9346 58.8972 42.9346H77.2163C77.9386 42.9346 78.5295 42.3392 78.5295 41.6115V40.2884C78.5076 36.7931 71.5367 35.0179 68.0458 35.0179Z" fill="#6FCF97"/>
</g>
<defs>
<linearGradient id="paint0_linear_110_3809" x1="7.09391" y1="90.9099" x2="59.0352" y2="44.0448" gradientUnits="userSpaceOnUse">
<stop stop-color="#67C3F3"/>
<stop offset="1" stop-color="#5A98F2"/>
</linearGradient>
<linearGradient id="paint1_linear_110_3809" x1="54.8288" y1="2.40658" x2="79.3349" y2="57.0847" gradientUnits="userSpaceOnUse">
<stop stop-color="#67C3F3"/>
<stop offset="1" stop-color="#5A98F2"/>
</linearGradient>
<clipPath id="clip0_110_3809">
<rect width="99.0153" height="96.8859" fill="white" transform="translate(0.985352 0.131531)"/>
</clipPath>
</defs>
</svg>
